<svg width="360" height="64" viewBox="0 0 360 64" fill="none" xmlns="http://www.w3.org/2000/svg">
<rect width="360" height="64" fill="url(#paint0_linear_38_58)"/>
<path d="M23.31 40H20.61V25.54H23.31V40ZM46.2275 25.54V40H43.8575V30.66C43.8575 30.2867 43.8775 29.8833 43.9175 29.45L39.5475 37.66C39.3408 38.0533 39.0242 38.25 38.5975 38.25H38.2175C37.7908 38.25 37.4742 38.0533 37.2675 37.66L32.8475 29.42C32.8675 29.64 32.8842 29.8567 32.8975 30.07C32.9108 30.2833 32.9175 30.48 32.9175 30.66V40H30.5475V25.54H32.5775C32.6975 25.54 32.8008 25.5433 32.8875 25.55C32.9742 25.5567 33.0508 25.5733 33.1175 25.6C33.1908 25.6267 33.2542 25.67 33.3075 25.73C33.3675 25.79 33.4242 25.87 33.4775 25.97L37.8075 34C37.9208 34.2133 38.0242 34.4333 38.1175 34.66C38.2175 34.8867 38.3142 35.12 38.4075 35.36C38.5008 35.1133 38.5975 34.8767 38.6975 34.65C38.7975 34.4167 38.9042 34.1933 39.0175 33.98L43.2875 25.97C43.3408 25.87 43.3975 25.79 43.4575 25.73C43.5175 25.67 43.5808 25.6267 43.6475 25.6C43.7208 25.5733 43.8008 25.5567 43.8875 25.55C43.9742 25.5433 44.0775 25.54 44.1975 25.54H46.2275ZM57.8238 32.42C58.3304 32.42 58.7704 32.3567 59.1438 32.23C59.5238 32.1033 59.8338 31.93 60.0738 31.71C60.3204 31.4833 60.5038 31.2167 60.6238 30.91C60.7438 30.6033 60.8038 30.2667 60.8038 29.9C60.8038 29.1667 60.5604 28.6033 60.0738 28.21C59.5938 27.8167 58.8571 27.62 57.8638 27.62H56.1438V32.42H57.8238ZM64.7438 40H62.3138C61.8538 40 61.5204 39.82 61.3138 39.46L58.2738 34.83C58.1604 34.6567 58.0338 34.5333 57.8938 34.46C57.7604 34.3867 57.5604 34.35 57.2938 34.35H56.1438V40H53.4538V25.54H57.8638C58.8438 25.54 59.6838 25.6433 60.3838 25.85C61.0904 26.05 61.6671 26.3333 62.1138 26.7C62.5671 27.0667 62.9004 27.5067 63.1138 28.02C63.3271 28.5267 63.4338 29.0867 63.4338 29.7C63.4338 30.1867 63.3604 30.6467 63.2138 31.08C63.0738 31.5133 62.8671 31.9067 62.5938 32.26C62.3271 32.6133 61.9938 32.9233 61.5938 33.19C61.2004 33.4567 60.7504 33.6667 60.2438 33.82C60.4171 33.92 60.5771 34.04 60.7238 34.18C60.8704 34.3133 61.0038 34.4733 61.1238 34.66L64.7438 40ZM77.9453 34.54L76.1853 29.73C76.0986 29.5167 76.0086 29.2633 75.9153 28.97C75.822 28.6767 75.7286 28.36 75.6353 28.02C75.5486 28.36 75.4586 28.68 75.3653 28.98C75.272 29.2733 75.182 29.53 75.0953 29.75L73.3453 34.54H77.9453ZM82.6953 40H80.6153C80.382 40 80.192 39.9433 80.0453 39.83C79.8986 39.71 79.7886 39.5633 79.7153 39.39L78.6353 36.44H72.6453L71.5653 39.39C71.512 39.5433 71.4086 39.6833 71.2553 39.81C71.102 39.9367 70.912 40 70.6853 40H68.5853L74.2753 25.54H77.0153L82.6953 40ZM100.382 25.54V40H99.002C98.7887 40 98.6087 39.9667 98.462 39.9C98.322 39.8267 98.1854 39.7067 98.052 39.54L90.502 29.9C90.542 30.34 90.562 30.7467 90.562 31.12V40H88.192V25.54H89.602C89.7154 25.54 89.812 25.5467 89.892 25.56C89.9787 25.5667 90.052 25.5867 90.112 25.62C90.1787 25.6467 90.242 25.69 90.302 25.75C90.362 25.8033 90.4287 25.8767 90.502 25.97L98.082 35.65C98.062 35.4167 98.0454 35.1867 98.032 34.96C98.0187 34.7333 98.012 34.5233 98.012 34.33V25.54H100.382ZM128.385 32.75V38.6C127.652 39.14 126.869 39.5367 126.035 39.79C125.209 40.0367 124.322 40.16 123.375 40.16C122.195 40.16 121.125 39.9767 120.165 39.61C119.212 39.2433 118.395 38.7333 117.715 38.08C117.042 37.4267 116.522 36.6467 116.155 35.74C115.789 34.8333 115.605 33.8433 115.605 32.77C115.605 31.6833 115.782 30.6867 116.135 29.78C116.489 28.8733 116.989 28.0933 117.635 27.44C118.289 26.7867 119.079 26.28 120.005 25.92C120.932 25.56 121.972 25.38 123.125 25.38C123.712 25.38 124.259 25.4267 124.765 25.52C125.279 25.6133 125.752 25.7433 126.185 25.91C126.625 26.07 127.025 26.2667 127.385 26.5C127.745 26.7333 128.075 26.99 128.375 27.27L127.605 28.49C127.485 28.6833 127.329 28.8033 127.135 28.85C126.942 28.89 126.732 28.84 126.505 28.7C126.285 28.5733 126.065 28.4467 125.845 28.32C125.625 28.1933 125.379 28.0833 125.105 27.99C124.839 27.8967 124.535 27.82 124.195 27.76C123.862 27.7 123.475 27.67 123.035 27.67C122.322 27.67 121.675 27.79 121.095 28.03C120.522 28.27 120.032 28.6133 119.625 29.06C119.219 29.5067 118.905 30.0433 118.685 30.67C118.465 31.2967 118.355 31.9967 118.355 32.77C118.355 33.5967 118.472 34.3367 118.705 34.99C118.945 35.6367 119.279 36.1867 119.705 36.64C120.139 37.0867 120.659 37.43 121.265 37.67C121.872 37.9033 122.549 38.02 123.295 38.02C123.829 38.02 124.305 37.9633 124.725 37.85C125.145 37.7367 125.555 37.5833 125.955 37.39V34.77H124.135C123.962 34.77 123.825 34.7233 123.725 34.63C123.632 34.53 123.585 34.41 123.585 34.27V32.75H128.385ZM140.797 37.83C141.317 37.83 141.781 37.7433 142.187 37.57C142.601 37.3967 142.947 37.1533 143.227 36.84C143.507 36.5267 143.721 36.1467 143.867 35.7C144.021 35.2533 144.097 34.7533 144.097 34.2V25.54H146.787V34.2C146.787 35.06 146.647 35.8567 146.367 36.59C146.094 37.3167 145.697 37.9467 145.177 38.48C144.664 39.0067 144.037 39.42 143.297 39.72C142.557 40.0133 141.724 40.16 140.797 40.16C139.864 40.16 139.027 40.0133 138.287 39.72C137.547 39.42 136.917 39.0067 136.397 38.48C135.884 37.9467 135.487 37.3167 135.207 36.59C134.934 35.8567 134.797 35.06 134.797 34.2V25.54H137.487V34.19C137.487 34.7433 137.561 35.2433 137.707 35.69C137.861 36.1367 138.077 36.52 138.357 36.84C138.644 37.1533 138.991 37.3967 139.397 37.57C139.811 37.7433 140.277 37.83 140.797 37.83ZM162.291 37.78V40H153.821V25.54H156.511V37.78H162.291ZM170.912 27.68V31.96H176.332V34.11H170.912V40H168.212V25.54H177.332V27.68H170.912ZM194.615 40H191.915V25.54H194.615V40ZM214.042 25.54V40H212.662C212.449 40 212.269 39.9667 212.122 39.9C211.982 39.8267 211.846 39.7067 211.712 39.54L204.162 29.9C204.202 30.34 204.222 30.7467 204.222 31.12V40H201.852V25.54H203.262C203.376 25.54 203.472 25.5467 203.552 25.56C203.639 25.5667 203.712 25.5867 203.772 25.62C203.839 25.6467 203.902 25.69 203.962 25.75C204.022 25.8033 204.089 25.8767 204.162 25.97L211.742 35.65C211.722 35.4167 211.706 35.1867 211.692 34.96C211.679 34.7333 211.672 34.5233 211.672 34.33V25.54H214.042ZM234.102 32.77C234.102 33.83 233.926 34.8033 233.572 35.69C233.219 36.5767 232.722 37.34 232.082 37.98C231.442 38.62 230.672 39.1167 229.772 39.47C228.872 39.8233 227.872 40 226.772 40H221.262V25.54H226.772C227.872 25.54 228.872 25.72 229.772 26.08C230.672 26.4333 231.442 26.93 232.082 27.57C232.722 28.2033 233.219 28.9633 233.572 29.85C233.926 30.7367 234.102 31.71 234.102 32.77ZM231.342 32.77C231.342 31.9767 231.236 31.2667 231.022 30.64C230.816 30.0067 230.512 29.4733 230.112 29.04C229.719 28.6 229.239 28.2633 228.672 28.03C228.112 27.7967 227.479 27.68 226.772 27.68H223.962V37.86H226.772C227.479 37.86 228.112 37.7433 228.672 37.51C229.239 37.2767 229.719 36.9433 230.112 36.51C230.512 36.07 230.816 35.5367 231.022 34.91C231.236 34.2767 231.342 33.5633 231.342 32.77ZM246.297 37.83C246.817 37.83 247.281 37.7433 247.687 37.57C248.101 37.3967 248.447 37.1533 248.727 36.84C249.007 36.5267 249.221 36.1467 249.367 35.7C249.521 35.2533 249.597 34.7533 249.597 34.2V25.54H252.287V34.2C252.287 35.06 252.147 35.8567 251.867 36.59C251.594 37.3167 251.197 37.9467 250.677 38.48C250.164 39.0067 249.537 39.42 248.797 39.72C248.057 40.0133 247.224 40.16 246.297 40.16C245.364 40.16 244.527 40.0133 243.787 39.72C243.047 39.42 242.417 39.0067 241.897 38.48C241.384 37.9467 240.987 37.3167 240.707 36.59C240.434 35.8567 240.297 35.06 240.297 34.2V25.54H242.987V34.19C242.987 34.7433 243.061 35.2433 243.207 35.69C243.361 36.1367 243.577 36.52 243.857 36.84C244.144 37.1533 244.491 37.3967 244.897 37.57C245.311 37.7433 245.777 37.83 246.297 37.83ZM267.021 28.17C266.941 28.31 266.854 28.4133 266.761 28.48C266.674 28.54 266.564 28.57 266.431 28.57C266.291 28.57 266.138 28.52 265.971 28.42C265.811 28.3133 265.618 28.1967 265.391 28.07C265.164 27.9433 264.898 27.83 264.591 27.73C264.291 27.6233 263.934 27.57 263.521 27.57C263.148 27.57 262.821 27.6167 262.541 27.71C262.261 27.7967 262.024 27.92 261.831 28.08C261.644 28.24 261.504 28.4333 261.411 28.66C261.318 28.88 261.271 29.1233 261.271 29.39C261.271 29.73 261.364 30.0133 261.551 30.24C261.744 30.4667 261.998 30.66 262.311 30.82C262.624 30.98 262.981 31.1233 263.381 31.25C263.781 31.3767 264.191 31.5133 264.611 31.66C265.031 31.8 265.441 31.9667 265.841 32.16C266.241 32.3467 266.598 32.5867 266.911 32.88C267.224 33.1667 267.474 33.52 267.661 33.94C267.854 34.36 267.951 34.87 267.951 35.47C267.951 36.1233 267.838 36.7367 267.611 37.31C267.391 37.8767 267.064 38.3733 266.631 38.8C266.204 39.22 265.681 39.5533 265.061 39.8C264.441 40.04 263.731 40.16 262.931 40.16C262.471 40.16 262.018 40.1133 261.571 40.02C261.124 39.9333 260.694 39.8067 260.281 39.64C259.874 39.4733 259.491 39.2733 259.131 39.04C258.771 38.8067 258.451 38.5467 258.171 38.26L258.961 36.97C259.028 36.8767 259.114 36.8 259.221 36.74C259.328 36.6733 259.441 36.64 259.561 36.64C259.728 36.64 259.908 36.71 260.101 36.85C260.294 36.9833 260.524 37.1333 260.791 37.3C261.058 37.4667 261.368 37.62 261.721 37.76C262.081 37.8933 262.511 37.96 263.011 37.96C263.778 37.96 264.371 37.78 264.791 37.42C265.211 37.0533 265.421 36.53 265.421 35.85C265.421 35.47 265.324 35.16 265.131 34.92C264.944 34.68 264.694 34.48 264.381 34.32C264.068 34.1533 263.711 34.0133 263.311 33.9C262.911 33.7867 262.504 33.6633 262.091 33.53C261.678 33.3967 261.271 33.2367 260.871 33.05C260.471 32.8633 260.114 32.62 259.801 32.32C259.488 32.02 259.234 31.6467 259.041 31.2C258.854 30.7467 258.761 30.19 258.761 29.53C258.761 29.0033 258.864 28.49 259.071 27.99C259.284 27.49 259.591 27.0467 259.991 26.66C260.391 26.2733 260.884 25.9633 261.471 25.73C262.058 25.4967 262.731 25.38 263.491 25.38C264.344 25.38 265.131 25.5133 265.851 25.78C266.571 26.0467 267.184 26.42 267.691 26.9L267.021 28.17ZM284.398 27.75H280.038V40H277.348V27.75H272.988V25.54H284.398V27.75ZM294.66 32.42C295.166 32.42 295.606 32.3567 295.98 32.23C296.36 32.1033 296.67 31.93 296.91 31.71C297.156 31.4833 297.34 31.2167 297.46 30.91C297.58 30.6033 297.64 30.2667 297.64 29.9C297.64 29.1667 297.396 28.6033 296.91 28.21C296.43 27.8167 295.693 27.62 294.7 27.62H292.98V32.42H294.66ZM301.58 40H299.15C298.69 40 298.356 39.82 298.15 39.46L295.11 34.83C294.996 34.6567 294.87 34.5333 294.73 34.46C294.596 34.3867 294.396 34.35 294.13 34.35H292.98V40H290.29V25.54H294.7C295.68 25.54 296.52 25.6433 297.22 25.85C297.926 26.05 298.503 26.3333 298.95 26.7C299.403 27.0667 299.736 27.5067 299.95 28.02C300.163 28.5267 300.27 29.0867 300.27 29.7C300.27 30.1867 300.196 30.6467 300.05 31.08C299.91 31.5133 299.703 31.9067 299.43 32.26C299.163 32.6133 298.83 32.9233 298.43 33.19C298.036 33.4567 297.586 33.6667 297.08 33.82C297.253 33.92 297.413 34.04 297.56 34.18C297.706 34.3133 297.84 34.4733 297.96 34.66L301.58 40ZM309.841 40H307.141V25.54H309.841V40ZM319.779 27.68V31.69H324.839V33.76H319.779V37.85H326.199V40H317.079V25.54H326.199V27.68H319.779ZM340.283 28.17C340.203 28.31 340.116 28.4133 340.023 28.48C339.936 28.54 339.826 28.57 339.693 28.57C339.553 28.57 339.399 28.52 339.233 28.42C339.073 28.3133 338.879 28.1967 338.653 28.07C338.426 27.9433 338.159 27.83 337.853 27.73C337.553 27.6233 337.196 27.57 336.783 27.57C336.409 27.57 336.083 27.6167 335.803 27.71C335.523 27.7967 335.286 27.92 335.093 28.08C334.906 28.24 334.766 28.4333 334.673 28.66C334.579 28.88 334.533 29.1233 334.533 29.39C334.533 29.73 334.626 30.0133 334.813 30.24C335.006 30.4667 335.259 30.66 335.573 30.82C335.886 30.98 336.243 31.1233 336.643 31.25C337.043 31.3767 337.453 31.5133 337.873 31.66C338.293 31.8 338.703 31.9667 339.103 32.16C339.503 32.3467 339.859 32.5867 340.173 32.88C340.486 33.1667 340.736 33.52 340.923 33.94C341.116 34.36 341.213 34.87 341.213 35.47C341.213 36.1233 341.099 36.7367 340.873 37.31C340.653 37.8767 340.326 38.3733 339.893 38.8C339.466 39.22 338.943 39.5533 338.323 39.8C337.703 40.04 336.993 40.16 336.193 40.16C335.733 40.16 335.279 40.1133 334.833 40.02C334.386 39.9333 333.956 39.8067 333.543 39.64C333.136 39.4733 332.753 39.2733 332.393 39.04C332.033 38.8067 331.713 38.5467 331.433 38.26L332.223 36.97C332.289 36.8767 332.376 36.8 332.483 36.74C332.589 36.6733 332.703 36.64 332.823 36.64C332.989 36.64 333.169 36.71 333.363 36.85C333.556 36.9833 333.786 37.1333 334.053 37.3C334.319 37.4667 334.629 37.62 334.983 37.76C335.343 37.8933 335.773 37.96 336.273 37.96C337.039 37.96 337.633 37.78 338.053 37.42C338.473 37.0533 338.683 36.53 338.683 35.85C338.683 35.47 338.586 35.16 338.393 34.92C338.206 34.68 337.956 34.48 337.643 34.32C337.329 34.1533 336.973 34.0133 336.573 33.9C336.173 33.7867 335.766 33.6633 335.353 33.53C334.939 33.3967 334.533 33.2367 334.133 33.05C333.733 32.8633 333.376 32.62 333.063 32.32C332.749 32.02 332.496 31.6467 332.303 31.2C332.116 30.7467 332.023 30.19 332.023 29.53C332.023 29.0033 332.126 28.49 332.333 27.99C332.546 27.49 332.853 27.0467 333.253 26.66C333.653 26.2733 334.146 25.9633 334.733 25.73C335.319 25.4967 335.993 25.38 336.753 25.38C337.606 25.38 338.393 25.5133 339.113 25.78C339.833 26.0467 340.446 26.42 340.953 26.9L340.283 28.17Z" fill="white"/>
<defs>
<linearGradient id="paint0_linear_38_58" x1="460.588" y1="32" x2="3.76729e-06" y2="32.0001" gradientUnits="userSpaceOnUse">
<stop stop-color="#F5CA4B"/>
<stop offset="1" stop-color="#DDA92A"/>
</linearGradient>
</defs>
</svg>
